<svg id="Layer_1" data-name="Layer 1" xmlns="http://www.w3.org/2000/svg" viewBox="0 0 1920 1080"><defs><style>.cls-1{fill:#941400;}.cls-1,.cls-2,.cls-4,.cls-6,.cls-7{stroke:#000;stroke-miterlimit:10;}.cls-2{fill:#7f7c00;}.cls-3{fill:#4500e9;}.cls-4{fill:none;}.cls-5{fill:#43ff3f;}.cls-6{fill:#00a8d4;}.cls-7{fill:#ff7a55;}.cls-8{font-size:21px;}.cls-8,.cls-9{font-family:Poppins-Regular, Poppins;}.cls-9{font-size:22.5px;}</style></defs><title>tree5</title><g id="leaf_branch" data-name="leaf branch"><path id="stem" class="cls-1" d="M944.67,866.25l7.73-69.35,2.9-78.6V553.7l-3.86-3.7h14.48l-1,69.35,4.83,99.87,11.59,107.27L992,868.1s-6.76,5.55-7.73,5.55-15.45,1.85-15.45,1.85l-16.42-1.85-7.73-6.47Z"/><path id="r1" class="cls-2" d="M967,717.11l66-41,19-48,44-32,38-10h25s29,9,30,10,19,4,19,4l-10,16-22,39-27,27-39,18-41-4-29-10h-9l-35,21-17,10-12,7Z"/><g id="r2"><path class="cls-3" d="M965.57,639.46c-1,1-4,0-4,0l58-63-7-36,7-55,25-52,51-47,51-21,23-4,11-7v12l7,56-9,52s-23,48-26,51-43,41-43,41l-61,19-19-5-18,21-26,23S966.57,638.46,965.57,639.46Z"/><path class="cls-4" d="M961.57,639.46l58-63-7-36,7-55,25-52,51-47,51-21,23-4,11-7v12l7,56-9,52s-23,48-26,51-43,41-43,41l-61,19-19-5-18,21-26,23s-19,14-20,15S961.57,639.46,961.57,639.46Z"/></g><g id="top_leaf" data-name="top leaf"><path class="cls-5" d="M1028.93,411c1,2-4,46-4,46s-18,43-19,45-21,31-21,31l-17,17h-16v-2l-47-60-14-46,3-65,27-66,26-28,10-10v-6h4l10,20,26,32,23,48S1027.93,409,1028.93,411Z"/><path class="cls-4" d="M951.93,548l-47-60-14-46,3-65,27-66,26-28,10-10v-6h4l10,20,26,32,23,48s8,42,9,44-4,46-4,46-18,43-19,45-21,31-21,31l-17,17h-16Z"/></g><polygon id="l2" class="cls-6" points="955.5 696.5 924.5 656.5 898.5 631.5 855.5 624.5 794.5 586.5 751.5 504.5 747.5 448.5 752.5 414.5 752.5 397.5 766.5 405.5 810.5 416.5 844.5 434.5 877.5 462.5 906.5 501.5 922.5 558.5 916.5 610.5 921.5 631.5 929.5 647.5 949.5 676.5 955.5 681.5 955.5 696.5"/><polygon id="l1" class="cls-7" points="954.33 740.67 896.38 711.08 881.9 682.42 853.89 653.75 819.12 640.8 790.14 637.11 743.78 645.43 723.5 655.6 723.5 663 749.58 699.06 781.45 724.96 823.95 737.9 851.96 731.43 875.13 728.65 891.55 720.33 903.14 719.41 954.33 740.67"/><text class="cls-8" transform="translate(775.13 658.5)">JS &amp;<tspan x="0" y="25.2">CSS</tspan><tspan x="0" y="50.4">Released</tspan></text><text class="cls-8" transform="translate(906.52 377.83)">Concept<tspan x="0" y="25.2">of Respo-</tspan><tspan x="0" y="50.4">nsive web</tspan><tspan x="0" y="75.6">Design</tspan></text><text class="cls-8" transform="translate(1066.11 445.94)">First <tspan x="0" y="25.2">Mobile</tspan><tspan x="0" y="50.4">Browser</tspan></text><text class="cls-9" transform="translate(1069.56 626.01) scale(0.77 1)">Google<tspan x="0" y="27">officially</tspan><tspan x="0" y="54.01">launched</tspan></text><text class="cls-8" transform="translate(782.33 492.64)">Internet<tspan x="0" y="25.2">on Phone</tspan></text><text class="cls-8" transform="translate(1458.1 813.42)">vv</text></g></svg>