<?xml version="1.0" encoding="utf-8"?>
<!-- Generator: Adobe Illustrator 24.1.1, SVG Export Plug-In . SVG Version: 6.00 Build 0)  -->
<svg version="1.1" id="Layer_1" xmlns="http://www.w3.org/2000/svg" xmlns:xlink="http://www.w3.org/1999/xlink" x="0px" y="0px"
	 viewBox="0 0 1920 1080" style="enable-background:new 0 0 1920 1080;" xml:space="preserve">
<style type="text/css">
	.st0{display:none;fill:#FFFFFF;stroke:#000000;stroke-miterlimit:10;}
	.st1{display:none;}
	.st2{display:inline;fill:#D3FF55;stroke:#000000;stroke-miterlimit:10;}
	.st3{fill:#941400;stroke:#000000;stroke-miterlimit:10;}
	.st4{fill:#7F7C00;stroke:#000000;stroke-miterlimit:10;}
	.st5{fill:#4500E9;}
	.st6{fill:none;stroke:#000000;stroke-miterlimit:10;}
	.st7{fill:#43FF3F;}
	.st8{fill:#00A8D4;stroke:#000000;stroke-miterlimit:10;}
	.st9{fill:#FF7A55;stroke:#000000;stroke-miterlimit:10;}
</style>
<g id="Layer_1_1_">
	<rect x="707.5" y="213.5" class="st0" width="548" height="680"/>
	<g>
		<g>
			<path d="M1031.7,389.9c0,2.3,0.1,4.7,0,7c-0.2,6.8-0.7,13.6-2.2,20.3c-0.1,0.4-0.2,0.8-0.2,1.3c-0.3,5.6-1.9,10.9-3.4,16.2
				c-2,7.1-4.3,14-7.5,20.7c-2.1,4.3-4.4,8.5-6.7,12.7c-0.3,0.6-0.7,1.1-0.9,1.7c-0.7,2.4-2.2,4.4-3.6,6.4c-2.3,3.1-4.3,6.3-6.7,9.3
				c-1.9,2.4-3.5,5-5.5,7.5c-1.1,1.3-2.3,2.5-3.5,3.7c-3.1,3.3-6.2,6.7-9.6,9.8c-2.2,1.9-4.3,3.8-6.7,5.4c-3.7,2.4-5.3,5.7-5.5,9.9
				c-0.1,1.3,0,2.6,0,3.8c0,16.8,0,33.7,0,50.5c0,2.1,0.2,4.2,0.4,6.4c0.3,2.7,0.2,5.5,0.2,8.3c0,1,0,1.9,0.2,2.9
				c0.2,1.2,1.5,1.8,2.4,1.1c2.4-1.9,5-3.6,6.9-6.1c1.3-1.7,2.5-3.4,4.6-4.3c1.2-0.6,2.1-1.8,2.9-2.9c1.5-2,3.3-3.5,5.2-5.2
				c3.3-3,6.6-6.1,9.5-9.5c2.6-3,5.4-5.7,8.1-8.6c4.4-4.7,8.5-9.5,11.9-15c0.4-0.6,0.7-1.4,1.3-1.8c2.4-2.1,3.5-5,5.4-7.5
				c0.9-1.1,1.1-2.2,0.7-3.6c-0.7-2.3-1.2-4.7-1.9-7.1c-0.7-2.3-1.3-4.5-1.5-6.8c-0.1-1-0.4-2.1-0.6-3.1c-0.2-1.4-0.5-2.7-0.7-4.1
				c-0.1-0.3,0-0.7-0.1-1c-1.5-3.6-1.2-7.6-1.5-11.3c-0.5-5.3-1.2-10.6-0.8-15.9c0.2-3.1,0.5-6.1,0.8-9.2c0.2-1.8,0.4-3.6,0.5-5.4
				c0.1-5,0.9-9.9,2.3-14.8c0.2-0.7,0.3-1.5,0.4-2.2c0.9-5,2.5-9.9,3.9-14.8c1.5-5,3.7-9.7,5.6-14.6c1.6-4,3.6-7.7,5.8-11.4
				c1.2-2.1,2.2-4.4,3.4-6.5c1.6-2.7,3.2-5.5,5.3-8c0.7-0.8,1.2-1.8,1.8-2.6c2.1-2.9,3.9-6.1,6.5-8.6c1.7-1.6,3-3.6,4.5-5.4
				c3.1-4,6.7-7.4,10.6-10.6c3.8-3.1,7.4-6.4,11.1-9.6c1.4-1.2,2.7-2.5,4.2-3.4c3.1-1.9,5.8-4.3,9-6c1.7-0.9,3.1-2.3,4.7-3.3
				c3.4-2,6.7-4.1,10.2-5.9c4.4-2.3,8.9-4.6,13.4-6.8c0.8-0.4,1.6-0.5,2.4-0.8c0.7-0.2,1.4-0.4,2.1-0.8c1.7-1,3.4-1.7,5.3-2.1
				c1.4-0.3,2.8-1.1,4.1-1.7c1.6-0.7,3.2-1.1,4.9-1.5c2-0.5,3.9-1.3,5.8-1.6c3.4-0.5,6.5-2,9.8-2.6c3.6-0.6,7.1-1.1,10.6-2.3
				c4.5-1.6,9-3.3,13-5.9c1.8-1.1,3.9-1.8,5.5-3.2c0.3-0.3,0.8-0.4,1.2-0.5c1-0.3,1.7,0.3,1.5,1.3c-0.1,0.6-0.3,1.2-0.5,1.8
				c-1.2,4.1-1.3,8.2-0.2,12.3c1.7,6.7,3.2,13.5,4.1,20.3c0.7,5.8,1.8,11.6,1.6,17.5c-0.2,4.3-0.1,8.5,0,12.8c0.1,4.7-0.7,9.3-1,14
				c-0.3,5.4-1.6,10.7-2.2,16.1c-0.2,1.7-0.5,3.4-1,5c-0.7,2.5-1.6,4.9-1.8,7.4c0,0.3-0.1,0.6-0.2,0.9c-1.4,4.1-2.8,8.3-4.1,12.4
				c-0.3,0.8-0.4,1.6-0.7,2.5c-0.2,0.8-0.3,1.7-0.8,2.4c-1.4,2.2-1.8,4.8-2.8,7.1c-0.8,2.1-1.8,4.1-2.7,6.1
				c-1.5,3.2-2.9,6.4-4.5,9.5c-0.9,1.9-2.1,3.7-3.1,5.6c-2.8,5.4-6.1,10.4-9.5,15.5c-1.9,2.9-3.9,5.9-6.1,8.5
				c-4.9,5.9-10,11.6-15.8,16.7c-5.3,4.6-10.7,9-16.7,12.9c-4.2,2.7-8.5,5.2-12.8,7.8c-2.2,1.3-4.6,2.3-6.9,3.3
				c-2.9,1.2-5.9,2.5-8.7,3.9c-2.6,1.2-5.4,2-8.1,2.9c-3,1-6.2,1.6-9.2,2.7c-3.7,1.3-7.7,1.8-11.4,2.9c-3.5,1-7,1.6-10.7,1.5
				c-1.8,0-3.6,0.4-5.4,0.7c-2,0.4-4,0.6-6,0.5c-2,0-3.8,0.6-5.4,1.7c-2,1.3-3.9,2.6-5.9,3.8c-3.9,2.4-7.8,4.8-11.7,7.2
				c-0.4,0.2-0.8,0.4-1.1,0.7c-5,4.6-10.8,8.3-15.7,13c-1.8,1.8-4.1,3-6,4.7c-2.4,2-4.6,4.1-6.8,6.3c-1,1-1.9,2-3.3,2.5
				c-0.9,0.4-1.6,1.1-2.2,1.8c-1.9,2.6-4.6,4.4-7,6.5c-2.7,2.4-5.3,5-7.8,7.6c-2,2.1-2.1,4.9-1.7,7.5c0.3,2.4,0.7,4.8,0.3,7.3
				c-0.1,0.4,0,0.9,0,1.3c0.7,3.7,0.3,7.4,0.5,11.2c0.3,4.6,0.7,9.1,1,13.7c0.1,1.2,0.2,2.3,0.2,3.5c0,3.8,0,7.7,0.1,11.5
				c0,0.6,0,1.3,0,1.9c-0.1,3.3,2,3.9,4.7,2.9c1.5-0.5,2.9-1.3,4.3-2.2c1.8-1.1,3.6-2.3,5.4-3.4c0.2-0.1,0.3-0.3,0.5-0.3
				c5-2.1,9.3-5.6,14.1-8.1c0.1,0,0.2-0.1,0.3-0.2c4.2-3,8.8-5.2,13-8.2c1.9-1.4,4.1-2.3,6-3.6c4.3-3,8.7-5.8,12.6-9.2
				c1.7-1.5,3.5-2.8,5.3-4c1.4-1,2.2-2.3,2.4-3.9c0.1-0.5,0.3-1,0.4-1.5c0.9-5.2,3-10,4.7-14.9c1.4-4,3.7-7.7,5.3-11.6
				c2.1-4.8,5.3-8.9,8-13.4c2.1-3.5,4.8-6.5,7.5-9.5c2.3-2.5,4.5-5.1,6.9-7.5c2.1-2,4.3-3.8,6.6-5.6c1.5-1.2,3-2.3,4.5-3.6
				c2.1-1.7,4.4-3.1,6.8-4.2c2.7-1.2,5.2-2.9,7.9-4.1c2.8-1.2,5.5-2.9,8.5-3.7c4.6-1.3,9-3.2,13.7-4.2c2.5-0.5,4.9-1.3,7.4-2
				c1.1-0.3,2.3-0.5,3.5-0.5c2.8,0.1,5.5-0.4,8.2-1c2.9-0.7,5.9-1,8.9-0.9c1.1,0,2.1,0,3.2,0c4.9-0.2,9.8,0.2,14.6,1.3
				c0.7,0.2,1.5,0.4,2.2,0.4c4,0,7.7,1.5,11.5,2.4c3.4,0.8,6.7,1.9,10.1,2.9c3.8,1.1,7.3,2.8,10.9,4.4c3.3,1.5,6.6,2.3,10.1,2.6
				c0.1,0,0.2,0,0.3,0c2.6,0,2.8,1.5,1.6,3.3c-1.2,1.7-2.6,3.4-4,5c-1.6,1.9-2.8,4-3.9,6.2c-2.1,4.5-4.2,9.1-6.3,13.6
				c-0.8,1.6-1.4,3.3-2.2,5c-3.2,6.4-6.8,12.5-11.1,18.3c-4.9,6.6-10.3,12.8-16.3,18.4c-3.8,3.5-7.8,6.8-11.8,10.2
				c-1.3,1.1-2.9,1.8-4.3,2.7c-2.5,1.6-5.2,2.9-7.8,4.3c-3.3,1.9-6.7,3.7-10.1,5.6c-0.6,0.3-1.2,0.6-1.8,0.7
				c-1.8,0.4-3.4,1.1-5.2,1.7c-2.1,0.7-4.2,1.5-6.4,1.8c-1.9,0.3-3.7,1.1-5.5,1.8c-1,0.4-2,0.8-3.1,0.7c-4.1-0.1-8,0.8-12,1.3
				c-3.4,0.4-6.8,0.4-10.2,0c-4.4-0.5-8.8-1.6-13.3-1.6c-2.2,0-4.4-0.6-6.5-1.5c-1.1-0.5-2.2-1-3.3-1c-1.8,0-3.3-0.6-4.9-1.4
				c-1.5-0.8-3.1-1.4-4.7-1.9c-2.8-0.9-5.4-2.4-8-3.9c-3.1-1.8-6.3-3.7-10.1-3.1c-0.8,0.1-1.7,0.2-2.4,0.7
				c-3.3,1.8-6.7,3.7-10.1,5.5c-0.3,0.2-0.5,0.4-0.8,0.5c-3.2,1.2-6.1,3.1-9.2,4.5c-3.1,1.4-6,3.3-8.9,5c-4.3,2.4-8.5,4.7-13,6.7
				c-0.5,0.2-1,0.5-1.4,0.8c-4.6,3.3-9.5,6-14.5,8.7c-2.1,1.1-4.1,2.3-6,3.7c-1.7,1.2-2.5,3-2.2,5c0.3,2.2,0.4,4.5,0.3,6.7
				c-0.1,3.8,0.3,7.7,0.9,11.5c0.4,2.8,0.4,5.5,0.5,8.3c0.2,3.5,0.5,7,0.7,10.5c0.1,1,0.4,1.9,0.4,2.8c0,4.4,0.4,8.7,0.8,13.1
				c0.3,3.6,0.7,7.2,1,10.8c0.3,3.5,0.7,7,0.9,10.5c0.3,3.7,1,7.4,1.5,11.1c0.1,1,0.3,2.1,0.3,3.2c0,3.3,0.3,6.6,0.7,9.9
				c0.8,6.2,1.3,12.5,2,18.7c0.1,0.7,0.2,1.5,0.4,2.2c0.5,1.6,0.8,3.3,0.8,5c0,0.3,0,0.7,0.1,1c1.5,4.3,0.8,8.9,2.1,13.2
				c0.2,0.7,0.2,1.5,0.3,2.2c0.3,3.9,1.7,7.7,1.5,11.7c1.1,2.8,1.1,5.8,2,8.7c0.7,2.2,1,4.5,1.6,6.8c0.3,0.9,0.4,1.9,1,2.7
				c0.6,0.9,0.8,2,0.9,3c0.3,2.6,0.9,5.3,1.7,7.8c0.3,0.9,0.6,1.8,0.7,2.8c0.3,1.9,0.6,3.8,1.3,5.6c0.6,1.6,0.2,2.9-1,4
				c-1.6,1.5-3.4,2.6-5.5,3.2c-6.5,2-13.1,3-19.8,2.5c-3.8-0.3-7.6-0.8-11.4-1.5c-2.9-0.6-5.7-1.9-8.2-3.4c-2.3-1.4-3.5-3.6-3-6.5
				c1.2-6.2,1.7-12.4,2.3-18.7c0.5-5,1.1-9.9,2.1-14.8c0.7-3.5,1.1-7.2,1-10.8c0-2.5,0.2-4.9,0.7-7.3c0.5-2.3,0.9-4.6,1-6.9
				c0.2-4,1-8,0.8-12.1c-0.1-2.5,0-4.9,0-7.3c0-1.9,0.1-3.8,0.4-5.7c0.2-1,0.2-2.1,0.2-3.2c0-0.8-0.1-1.7,0.1-2.5
				c0.9-4.3,0.5-8.7,0.6-13.1c0-1.6,0.1-3.2,0.4-4.8c0.2-1.1,0.2-2.3,0.2-3.5c0-3.9,0-7.9,0-11.8c0-1.9-0.1-3.8,0.4-5.7
				c0.1-0.3,0.2-0.7,0.1-1c-0.9-3.4,0.3-6.8,0.2-10.2c-0.1-3.3,0-6.6,0-9.9c0-2-0.1-4,0-6.1c0.2-2.8-1.2-4.5-3.5-5.5
				c-3.7-1.5-7-3.7-10.6-5.2c-5.6-2.4-10.9-5.3-16.6-7.4c-1-0.4-1.9-1-2.9-1.4c-4.7-2-9.4-3.9-14.1-5.9c-2.5-1.1-5.1-2.1-7.5-3.5
				c-2.3-1.3-4.8-2.3-7.5-2.4c-2.3,0-4.3,0.8-6.2,2.1c-4,3-8.2,5.7-12.7,7.9c-3.5,1.7-7.3,3-10.8,4.6c-2.6,1.2-5.4,2-8.1,2.9
				c-0.4,0.1-0.8,0.3-1.3,0.2c-2.8,0-5.4,0.9-8.1,1.6c-2.6,0.7-5.2,1.1-7.9,1.1c-3.9,0-7.9-0.2-11.8,0.5c-0.7,0.1-1.5,0.2-2.2,0
				c-3.8-0.6-7.6-1-11.3-2c-1.5-0.5-3.1-1-4.7-1c-3-0.1-5.8-1-8.7-2c-2.5-0.9-5-1.8-7.3-3.1c-0.5-0.3-1-0.4-1.5-0.5
				c-0.6-0.2-1.3-0.2-1.8-0.6c-3.8-2.3-8.1-3.1-11.9-5.4c-1.6-1-3.3-2-4.8-3.2c-2.3-1.9-4.8-3.4-7.3-5.2c-2.5-1.8-4.8-3.9-7.1-5.9
				c-1.4-1.2-2.8-2.3-4.1-3.5c-2-1.8-3.9-3.6-5.6-5.7c-1.2-1.5-2.5-2.9-3.9-4.3c-2.1-2.2-4.1-4.6-5.8-7.2c-0.1-0.1-0.1-0.2-0.2-0.3
				c-3.3-3.6-5.3-7.9-7.7-12c-3-5-6-10.1-8.9-15.1c-0.9-1.5-1.9-2.8-3.2-4c-1.7-1.6-3.3-3.4-4.7-5.2c-0.3-0.3-0.5-0.7-0.8-1
				c-0.4-0.7-0.1-1.6,0.7-1.8c0.9-0.2,1.9-0.2,2.8-0.3c1.3,0,2.5-0.5,3.7-1c4-1.8,7.6-4.2,11.4-6.4c0.4-0.2,0.7-0.6,1.1-0.6
				c2-0.3,3.5-1.4,5.3-2.1c2.3-0.9,4.6-1.8,6.8-2.7c1.3-0.5,2.5-1.2,3.9-1.3c0.9-0.1,1.6-0.6,2.3-1c1.6-0.9,3.3-1.5,5.1-1.5
				c0.8,0,1.7-0.1,2.5-0.4c5.5-2,11.2-2.5,16.9-2.7c0.8,0,1.7,0,2.5-0.2c4.7-0.8,9.3-0.6,14,0c3.2,0.4,6.4,0.4,9.5,0.7
				c3.7,0.3,7.4,0.6,10.9,2c1,0.4,2,0.6,3.1,0.6c2.2,0.1,4.2,0.6,6.2,1.3c2.3,0.8,4.6,1.7,6.8,2.7c3.3,1.5,6.8,2.5,10.1,4
				c2,0.9,3.9,1.8,5.5,3.2c2.3,2,4.9,3.4,7.4,5c3,1.9,5.7,4.1,8.2,6.6c2.1,2,4,4.2,6.1,6.1c2.5,2.2,4.6,4.6,6.4,7.5
				c1,1.5,2.2,2.8,3.4,4.2c2,2.4,3.6,5,5.1,7.7c1,2,2.3,3.8,3.5,5.7c3.4,5.7,5.9,11.8,8,18.1c0.7,2.3,2,4,4,5.2c1.7,1,3.3,2,5,2.9
				c1.8,0.9,3.5,2.1,5.1,3.3c0.8,0.6,1.5,1.1,2.4,1.6c2.9,1.5,5.9,3,8.8,4.5c2.5,1.4,4.9,3.1,7.5,4.2c3,1.3,5.6,3.5,8.8,4.4
				c0.2,0.1,0.4,0.1,0.6,0.2c2.5,1.9,5.3,3,8.1,4.5c2.6,1.4,5.3,2.9,8,3.9c4.3,1.7,5.6,0.8,5.8-3.9c0.2-3.7,0.1-7.5,0.1-11.2
				c0-1.7,0.1-3.4,0.4-5.1c0.9-5-0.5-9.3-3.9-12.9c-0.7-0.8-1.4-1.6-2-2.5c-2-3.2-4.7-5.8-6.6-9c-0.4-0.7-1.1-1.3-1.7-1.9
				c-1.3-1.4-2.5-2.9-3.6-4.5c-1.7-2.3-3.7-4.4-5.5-6.6c-0.5-0.6-1.1-1-1.5-1.7c-3.3-4.9-7.4-9-11.3-13.5c-3.8-4.3-8-8.2-12.1-12.3
				c-1.9-1.9-3.7-3.8-5.8-5.5c-1.7-1.3-3.5-2-5.6-2c-1.6,0-3.2,0-4.8,0c-2.9,0-5.7-0.2-8.5-0.9c-3.9-1-7.9-1.5-11.9-2.3
				c-1.8-0.3-3.5-0.7-5.2-1.5c-0.7-0.3-1.4-0.7-2.1-0.7c-2,0.1-3.7-0.8-5.5-1.4c-1.8-0.6-3.6-1.4-5.5-1.7c-0.3,0-0.6-0.1-0.9-0.3
				c-3.8-1.9-8-2.9-11.8-4.9c-1.5-0.8-3.1-1.5-4.7-2c-2.6-1-4.9-2.6-7.3-3.9c-4.9-2.8-9.9-5.5-14.3-8.9c-5.6-4.4-11.1-8.9-16.3-13.9
				c-4.1-4-7.7-8.5-11.5-12.8c-2.4-2.6-4.4-5.5-6.2-8.5c-0.9-1.4-2.1-2.7-3-4.1c-1.4-2.2-2.7-4.3-3.9-6.6c-2.3-4.1-4.5-8.2-6.7-12.4
				c-1.4-2.6-2.5-5.4-3.8-8.1c-2.6-5.5-4.2-11.4-6.7-16.9c-0.8-1.7-1.1-3.7-1.6-5.5c-0.1-0.5-0.1-1.1-0.3-1.6
				c-1.8-3.6-2.2-7.5-3.3-11.3c-0.8-2.7-1.5-5.3-1.6-8.1c0-0.6-0.1-1.3-0.3-1.9c-1.1-3.8-1.5-7.7-2-11.6c0-0.4-0.1-0.9-0.1-1.3
				c-0.4-9.1-1.2-18.3-0.6-27.4c0.3-4.1,0.2-8.3,0.7-12.4c0.4-4,0.8-8,2-12c0.3-0.8,0.3-1.7,0.4-2.5c0.3-3.1,0.8-6.1,2-9
				c0.3-0.6,0.4-1.2,0.5-1.8c0.3-3.7,0.5-7.4,0-11.1c-0.1-1-0.6-2-0.8-3.1c-0.2-0.6-0.2-1.3,0.4-1.8c0.5-0.4,1-0.4,1.5-0.1
				c1.1,0.6,2.4,1,3.4,1.8c1.3,1.1,2.9,1.8,4.4,2.6c2.5,1.3,5.3,2.3,7.7,3.8c1.6,1,3.6,1.2,5.5,1.6c1.8,0.4,3.5,0.7,5.2,1.4
				c0.5,0.2,1,0.4,1.5,0.4c2.7,0.1,5.2,1,7.8,1.5c2.7,0.5,5.4,1.3,8.1,2c1,0.3,2,0.7,3,1.1c0.8,0.3,1.5,0.8,2.4,1
				c3.7,0.8,7,2.6,10.5,3.9c0.2,0.1,0.4,0.2,0.6,0.3c7.5,2.2,14.1,6.5,21,10c2.5,1.3,4.9,2.9,7.3,4.5c3.2,2.1,6.3,4.4,9.5,6.4
				c2.5,1.6,4.9,3.3,7.1,5.3c2.3,2.1,4.9,3.8,7.1,5.9c2.6,2.5,5.4,4.8,8.2,7.1c0.9,0.8,1.8,1.5,2.5,2.4c3.8,4.5,8,8.6,11.4,13.3
				c0.4,0.5,0.8,1,1.2,1.5c3.1,4.6,6.3,9.1,9.3,13.7c1.2,1.8,2.1,3.7,3.2,5.5c1.7,3.2,3.5,6.3,5.2,9.5c0.2,0.4,0.4,0.8,0.5,1.2
				c1,3.6,2.8,6.9,4.3,10.3c0.2,0.5,0.4,1,0.6,1.5c2.5,7.6,5.2,15.1,6.3,23.1c0.2,1.6,1,3.1,1.2,4.6c0.7,5,1.5,9.9,1.4,14.9
				c0,1.6,0.2,3.2,0.3,4.8c0.3,3.1,0.4,6.2,0.1,9.3c-0.4,3.4-0.5,6.8-0.4,10.2c0.2,5.4-0.9,10.6-1.9,15.8c-0.3,1.6-0.7,3.1-0.8,4.7
				c-0.1,1-0.3,2.1-0.5,3.1c-1.1,4-2,8-3.5,11.9c-0.8,2.3-0.8,4.9,0,7.2c1,2.8,2.3,5.4,4,8c2.1,3.3,4.3,6.6,6.5,9.8
				c2.6,3.7,5.4,7.4,8.1,11.1c1.1,1.5,2,3.3,3.3,4.7c1,1.1,1.9,2.3,2.9,3.4c0.7,0.8,1.5,1.6,1.8,2.6c0.6,1.7,1.7,2.9,2.9,4.1
				c1,1,1.9,2,2.7,3.1c1.2,1.8,2.5,3.4,4,4.9c0.6,0.6,1.1,1.3,1.5,2c0.6,1.3,1.6,2.2,2.5,3.3c0.4,0.4,0.8,0.7,1.4,0.5
				c0.7-0.2,1-0.8,1.1-1.4c0.1-0.5,0.1-1.1,0.1-1.6c0-2.2,0.2-4.5,0.5-6.7c0.4-3.6,0.3-7.2,0-10.8c-0.1-1.2-0.2-2.3,0-3.5
				c0.2-1.2,0.2-2.3,0.2-3.5c0-6,0-11.9,0-17.9c0-2.5,0-5.1-0.5-7.6c-0.2-1.2-0.2-2.5-0.2-3.8c0-11.1-0.1-22.2,0-33.2
				c0-4.1-0.3-8.1-0.9-12.1c-0.1-0.6-0.3-1.3-0.3-1.9c0.1-3.7-0.7-7.4-0.8-11.1c-0.1-3.1-0.6-6.1-1.1-9.2c-0.4-2.4-0.8-4.8-0.8-7.3
				c0-0.6,0-1.3-0.1-1.9c-0.2-2.4-1-4.4-3.3-5.8c-4-2.5-7.4-5.7-10.8-9c-5.8-5.7-10.9-11.9-16.1-18.1c-6.7-8.1-12-17-17.2-26.1
				c-1.6-2.7-2.8-5.7-3.9-8.7c-1-2.6-2.1-5.1-3.4-7.5c-1.6-3.1-2.8-6.4-3.6-9.9c-0.8-3.7-1.2-7.6-2.8-11.1c-0.2-0.4-0.3-0.8-0.3-1.2
				c-0.5-2.6-0.9-5.2-1.9-7.7c-0.2-0.6-0.4-1.2-0.4-1.9c0-3.7-0.9-7.4-0.8-11.1c0.1-2.8,0-5.5,0-8.3c0-1.9-0.1-3.8-0.4-5.7
				c-0.4-3-0.4-6,0.1-8.9c0.1-0.4,0.2-0.8,0.2-1.3c0.3-3.9,0.6-7.8,0.9-11.8c0.2-3.1,0.9-6.1,1.4-9.2c0.2-1.1,0.4-2.3,0.4-3.5
				c0-2,0.4-4,1-6c1-3.6,1.9-7.2,2.8-10.8c0.9-3.6,1.8-7.2,2.8-10.8c0.1-0.5,0.3-1,0.6-1.5c1.7-3.3,2.8-6.9,4.2-10.4
				c1.6-3.9,2.9-8,4.9-11.8c2.2-4,4.4-8,6.6-12c4-7.5,9-14.2,14-20.9c3.3-4.3,7-8.3,10.9-12.1c3.1-3,6.1-6,9.1-9
				c2.7-2.6,4.6-5.9,6.5-9c0.4-0.7,0.5-1.6,0.6-2.4c0.1-0.6,0.2-1.3,0.4-1.9c0.2-0.7,1.3-1,1.8-0.4c0.3,0.4,0.7,0.8,0.9,1.3
				c1.8,3.6,3.5,7.3,5.3,10.9c0.9,1.8,2,3.5,3.2,5.1c1.8,2.4,3.8,4.6,5.7,6.9c4.1,4.9,8.1,9.8,12.2,14.7c1,1.2,2.1,2.4,3.1,3.7
				c3.8,4.6,7.1,9.5,10.3,14.6s6.1,10.2,8.7,15.6c0.8,1.7,1.8,3.4,2.7,5.1c0.5,1,1,1.9,1.3,2.9c2,6.1,4.6,11.9,6.9,17.8
				c0.6,1.5,1.1,3,1.4,4.6c0.6,3.1,1.8,6.1,2.5,9.2c0.8,3.6,2.1,7.1,2.9,10.8c0.8,3.9,1.2,8,1.7,12c0.1,1,0.1,2.1,0.3,3.2
				c1,4.1,1,8.2,1,12.4C1031.7,386.5,1031.7,388.2,1031.7,389.9L1031.7,389.9z"/>
		</g>
	</g>
	<g id="outline" class="st1">
		<path class="st2" d="M758.5,370l52.8,14.4c0.2,0,0.3,0.1,0.4,0.2l49.5,27.8c0.2,0.1,0.3,0.2,0.4,0.4l37.5,39.5
			c0.2,0.2,0.3,0.4,0.4,0.6l25.7,69.3c0.1,0.3,0.1,0.5,0.1,0.8l-5.9,70.8c0,0.5,0.1,1,0.4,1.3l37.2,46.3c1.1,1.4,3.3,0.6,3.3-1.2
			V518.2c0-0.5-0.2-0.9-0.5-1.3l-47.2-51.1c-0.2-0.2-0.3-0.5-0.4-0.7l-16.8-54.3c-0.1-0.2-0.1-0.4-0.1-0.6l3-84.2
			c0-0.3,0.1-0.6,0.3-0.9l27.7-47.4c0.1-0.1,0.2-0.2,0.2-0.3L959,242c0.3-0.4,0.5-0.8,0.5-1.3l0,0c0-1.8,2.2-2.6,3.3-1.2l5.7,6.9
			l25.9,31.8c0.1,0.1,0.2,0.3,0.2,0.4l30.8,65.5c0.1,0.2,0.1,0.4,0.2,0.6l6.9,53.4c0,0.2,0,0.5,0,0.7l-11.8,50.3
			c-0.1,0.3-0.2,0.5-0.3,0.7L970.9,517c-0.2,0.3-0.4,0.7-0.4,1.1l0.9,71c0,1.7,2,2.5,3.2,1.3l57.2-55.3c0.4-0.4,0.7-1.1,0.5-1.7
			l-9.8-55.6c0-0.3,0-0.6,0.1-0.9l23.7-76.1c0.1-0.3,0.3-0.6,0.5-0.8l62.4-59.4c0.2-0.2,0.4-0.3,0.6-0.4l52.6-19.9l25.5-9.1
			c1.2-0.4,2.5,0.5,2.5,1.8v16.2c0,0.1,0,0.1,0,0.2l6.9,57.5c0,0.3,0,0.6-0.1,0.8l-27.8,81.3c-0.1,0.2-0.2,0.4-0.3,0.6l-34.5,40.4
			c-0.2,0.2-0.4,0.4-0.6,0.5l-53.3,25.7c-0.2,0.1-0.4,0.2-0.6,0.2l-38.1,3.9c-0.4,0-0.7,0.2-1,0.4l-67.9,58
			c-0.4,0.4-0.7,0.9-0.7,1.5l1,54c0,0.1,0,0.2,0,0.2l0.6,4.1c0.2,1.3,1.7,2,2.8,1.4l64-37.2c0.4-0.2,0.7-0.6,0.8-1l14.6-44.8
			c0.1-0.3,0.3-0.7,0.6-0.9l45.2-36.3c0.3-0.2,0.6-0.3,0.9-0.4l64.1-8.9c0.3,0,0.5,0,0.8,0l24.6,6.9l19.7,5.9c0.2,0,0.4,0.1,0.5,0.1
			h1c1.6,0,2.4,1.8,1.5,3l-9.7,13l-38.7,56.6c-0.2,0.3-0.4,0.5-0.7,0.6l-49,26.5c-0.4,0.2-0.8,0.3-1.2,0.2l-70.7-12.8
			c-0.4-0.1-0.8,0-1.2,0.2l-67.3,36.1c-0.7,0.3-1,1-1,1.8l10.9,150.6c0,0.2,0,0.3,0.1,0.4l11.8,37.3c0.1,0.3,0.1,0.7,0,1l-1.6,6.3
			c-0.2,0.7-0.8,1.3-1.5,1.4l-35,6.6c-0.5,0.1-1.1,0-1.5-0.4l-9.6-7.8c-0.5-0.4-0.7-1-0.7-1.6l9.9-171.5c0.1-2.3-3.1-2.8-3.7-0.6
			l0,0c-0.2,0.7-0.7,1.2-1.4,1.3l-6.4,1.6c-0.3,0.1-0.7,0.1-1.1,0l-47.8-16.6c-0.4-0.2-0.9-0.1-1.4,0L856,694.3
			c-0.3,0.1-0.7,0.2-1,0.1l-74.8-9.8c-0.5-0.1-0.9-0.3-1.2-0.6l-56.3-63.2c-0.2-0.2-0.3-0.4-0.4-0.7l-5.3-15.9c-0.3-1,0.2-2,1.2-2.4
			l27.2-9.4c0,0,0.1,0,0.1,0l39.2-10.8c0.5-0.1,1-0.1,1.5,0.2c7,4.2,64.4,38.8,65.3,41.6c1,3,6,3,9,8c2.7,4.5,17.6,17.2,20.5,19.6
			c0.3,0.3,22.5,1.6,22.5,3.4c0,1.6,0.7,9.3,0.9,12c0.1,0.6,0.4,1.2,1,1.5l18.9,10.4c0.2,0.1,0.3,0.2,0.5,0.2l16.6,3.7
			c0.7,0.2,1.4-0.1,1.8-0.6L959,663c0.3-0.3,0.5-0.8,0.5-1.2v-11.5c0-0.5-0.2-1-0.5-1.3l-5.1-5.1c-0.7-0.7-1.9-0.7-2.7,0l-0.4,0.4
			c-0.7,0.7-1.9,0.7-2.6,0l-44.4-42.5c-0.2-0.2-0.3-0.3-0.5-0.4L796,553.7c-0.4-0.2-0.7-0.4-0.9-0.8l-33.5-58.2
			c-0.1-0.2-0.2-0.4-0.2-0.6l-8.9-49.5c0-0.1,0-0.3,0-0.4l2-63.7c0-0.1,0-0.2,0-0.3l1.6-8.8C756.3,370.4,757.4,369.8,758.5,370z"/>
	</g>
</g>
<g id="leaf_branch">
	<path id="stem" class="st3" d="M949.5,860.5l8-75l3-85v-39v-139l-4-4h15l-1,75l5,108l12,116l11,45c0,0-7,6-8,6s-16,2-16,2l-17-2
		l-8-7V860.5z"/>
	<path id="r1" class="st4" d="M975.5,660.5l66-41l19-48l44-32l38-10h25c0,0,29,9,30,10s19,4,19,4l-10,16l-22,39l-27,27l-39,18l-41-4
		l-29-10h-9l-35,21l-17,10l-12,7V660.5z"/>
	<g id="r2">
		<g id="XMLID_2_">
			<g>
				<path class="st5" d="M975.5,594.5c-1,1-4,0-4,0l58-63l-7-36l7-55l25-52l51-47l51-21l23-4l11-7v12l7,56l-9,52c0,0-23,48-26,51
					s-43,41-43,41l-61,19l-19-5l-18,21l-26,23C995.5,579.5,976.5,593.5,975.5,594.5z"/>
			</g>
			<g>
				<path class="st6" d="M971.5,594.5l58-63l-7-36l7-55l25-52l51-47l51-21l23-4l11-7v12l7,56l-9,52c0,0-23,48-26,51s-43,41-43,41
					l-61,19l-19-5l-18,21l-26,23c0,0-19,14-20,15S971.5,594.5,971.5,594.5z"/>
			</g>
		</g>
	</g>
	<g id="top_leaf">
		<g>
			<path class="st7" d="M1031.5,379.5c1,2-4,46-4,46s-18,43-19,45s-21,31-21,31l-17,17h-14h-2v-2l-47-60l-14-46l3-65l27-66l26-28
				l10-10v-6h4l10,20l26,32l23,48C1022.5,335.5,1030.5,377.5,1031.5,379.5z"/>
		</g>
		<g>
			<path class="st6" d="M954.5,516.5l-47-60l-14-46l3-65l27-66l26-28l10-10v-6h4l10,20l26,32l23,48c0,0,8,42,9,44s-4,46-4,46
				s-18,43-19,45s-21,31-21,31l-17,17h-14h-2V516.5z"/>
		</g>
	</g>
	<polygon id="l2" class="st8" points="959.5,665.5 928.5,625.5 902.5,600.5 859.5,593.5 798.5,555.5 755.5,473.5 751.5,417.5 
		756.5,383.5 756.5,366.5 770.5,374.5 814.5,385.5 848.5,403.5 881.5,431.5 910.5,470.5 926.5,527.5 920.5,579.5 925.5,600.5 
		933.5,616.5 953.5,645.5 959.5,650.5 	"/>
	<polygon id="l1" class="st9" points="959.5,695.5 899.5,663.5 884.5,632.5 855.5,601.5 819.5,587.5 789.5,583.5 741.5,592.5 
		720.5,603.5 720.5,611.5 747.5,650.5 780.5,678.5 824.5,692.5 853.5,685.5 877.5,682.5 894.5,673.5 906.5,672.5 	"/>
</g>
</svg>
